<svg width="242" height="32" viewBox="0 0 242 32" fill="none" xmlns="http://www.w3.org/2000/svg">
<path d="M9.752 25.608C7.64 25.608 5.85867 25.2773 4.408 24.616C2.95733 23.9333 1.85867 23.016 1.112 21.864C0.365333 20.6907 -0.00799996 19.3467 -0.00799996 17.832H5.08C5.08 18.4293 5.24 18.984 5.56 19.496C5.90133 20.008 6.41333 20.424 7.096 20.744C7.77867 21.0427 8.664 21.192 9.752 21.192C10.7333 21.192 11.5547 21.064 12.216 20.808C12.8773 20.552 13.3787 20.2 13.72 19.752C14.0613 19.2827 14.232 18.7493 14.232 18.152C14.232 17.4053 13.912 16.8187 13.272 16.392C12.632 15.944 11.5973 15.656 10.168 15.528L8.408 15.368C6.08267 15.176 4.22667 14.4507 2.84 13.192C1.45333 11.9333 0.76 10.2693 0.76 8.2C0.76 6.70667 1.112 5.416 1.816 4.328C2.54133 3.24 3.544 2.408 4.824 1.832C6.104 1.23467 7.61867 0.935999 9.368 0.935999C11.2027 0.935999 12.7707 1.256 14.072 1.896C15.3947 2.51467 16.408 3.4 17.112 4.552C17.816 5.68267 18.168 7.016 18.168 8.552H13.048C13.048 7.976 12.9093 7.45333 12.632 6.984C12.3547 6.49333 11.9387 6.09867 11.384 5.8C10.8507 5.50133 10.1787 5.352 9.368 5.352C8.6 5.352 7.94933 5.48 7.416 5.736C6.904 5.992 6.52 6.344 6.264 6.792C6.008 7.21867 5.88 7.688 5.88 8.2C5.88 8.86133 6.11467 9.43733 6.584 9.928C7.05333 10.4187 7.82133 10.7067 8.888 10.792L10.68 10.952C12.3867 11.1013 13.8907 11.4747 15.192 12.072C16.4933 12.648 17.5067 13.448 18.232 14.472C18.9787 15.4747 19.352 16.7013 19.352 18.152C19.352 19.6453 18.9573 20.9573 18.168 22.088C17.4 23.1973 16.3013 24.0613 14.872 24.68C13.4427 25.2987 11.736 25.608 9.752 25.608ZM30.4618 25.608C28.9684 25.608 27.6458 25.352 26.4938 24.84C25.3631 24.328 24.4138 23.6453 23.6458 22.792C22.8991 21.9173 22.3231 20.9467 21.9178 19.88C21.5338 18.792 21.3418 17.6827 21.3418 16.552V15.912C21.3418 14.7387 21.5338 13.6187 21.9178 12.552C22.3231 11.464 22.8991 10.4933 23.6458 9.64C24.3924 8.78667 25.3204 8.11467 26.4298 7.624C27.5604 7.112 28.8404 6.856 30.2698 6.856C32.1471 6.856 33.7258 7.28267 35.0058 8.136C36.3071 8.968 37.2991 10.0667 37.9818 11.432C38.6644 12.776 39.0058 14.248 39.0058 15.848V17.576H23.4858V14.664H35.9018L34.2378 16.008C34.2378 14.9627 34.0884 14.0667 33.7898 13.32C33.4911 12.5733 33.0431 12.008 32.4458 11.624C31.8698 11.2187 31.1444 11.016 30.2698 11.016C29.3738 11.016 28.6164 11.2187 27.9978 11.624C27.3791 12.0293 26.9098 12.6267 26.5898 13.416C26.2698 14.184 26.1098 15.1333 26.1098 16.264C26.1098 17.3093 26.2591 18.2267 26.5578 19.016C26.8564 19.784 27.3258 20.3813 27.9658 20.808C28.6058 21.2347 29.4378 21.448 30.4618 21.448C31.4004 21.448 32.1684 21.2667 32.7658 20.904C33.3631 20.5413 33.7684 20.0933 33.9818 19.56H38.6858C38.4298 20.7333 37.9284 21.7787 37.1818 22.696C36.4351 23.6133 35.4964 24.328 34.3658 24.84C33.2351 25.352 31.9338 25.608 30.4618 25.608ZM42.1485 25V7.464H46.2125V14.984H46.1165C46.1165 12.5093 46.6392 10.6 47.6845 9.256C48.7512 7.912 50.2872 7.24 52.2925 7.24H52.9645V11.656H51.6845C50.2765 11.656 49.1885 12.04 48.4205 12.808C47.6525 13.5547 47.2685 14.6427 47.2685 16.072V25H42.1485ZM55.3673 25V1.64H60.4873V15.112H59.7193C59.7193 13.3413 59.9433 11.848 60.3913 10.632C60.8393 9.416 61.5006 8.49867 62.3753 7.88C63.2499 7.24 64.3486 6.92 65.6713 6.92H65.8953C67.8366 6.92 69.3193 7.61333 70.3433 9C71.3673 10.3653 71.8793 12.3707 71.8793 15.016V25H66.7593V14.696C66.7593 13.736 66.4713 12.968 65.8953 12.392C65.3406 11.7947 64.6046 11.496 63.6873 11.496C62.7273 11.496 61.9486 11.8053 61.3513 12.424C60.7753 13.0427 60.4873 13.864 60.4873 14.888V25H55.3673ZM76.8243 25V7.464H81.9443V25H76.8243ZM74.4883 11.24V7.464H81.9443V11.24H74.4883ZM78.8083 5.736C77.8483 5.736 77.1336 5.49067 76.6643 5C76.2163 4.488 75.9923 3.848 75.9923 3.08C75.9923 2.29066 76.2163 1.65066 76.6643 1.16C77.1336 0.647998 77.8483 0.391998 78.8083 0.391998C79.7683 0.391998 80.4723 0.647998 80.9203 1.16C81.3896 1.65066 81.6243 2.29066 81.6243 3.08C81.6243 3.848 81.3896 4.488 80.9203 5C80.4723 5.49067 79.7683 5.736 78.8083 5.736ZM87.2618 25V7.464H92.3818V25H87.2618ZM84.9258 11.24V7.464H92.3818V11.24H84.9258ZM89.2458 5.736C88.2858 5.736 87.5711 5.49067 87.1018 5C86.6538 4.488 86.4298 3.848 86.4298 3.08C86.4298 2.29066 86.6538 1.65066 87.1018 1.16C87.5711 0.647998 88.2858 0.391998 89.2458 0.391998C90.2058 0.391998 90.9098 0.647998 91.3578 1.16C91.8271 1.65066 92.0618 2.29066 92.0618 3.08C92.0618 3.848 91.8271 4.488 91.3578 5C90.9098 5.49067 90.2058 5.736 89.2458 5.736ZM106.651 25.096V23.528H113.787C115.301 23.528 116.485 23.08 117.339 22.184C118.192 21.288 118.619 20.136 118.619 18.728C118.619 17.2987 118.203 16.1467 117.371 15.272C116.539 14.376 115.344 13.928 113.787 13.928H106.651V12.712H113.499C114.864 12.712 116.059 12.936 117.083 13.384C118.107 13.8107 118.907 14.4613 119.483 15.336C120.08 16.2107 120.378 17.288 120.378 18.568V18.888C120.378 20.0827 120.123 21.1493 119.611 22.088C119.12 23.0053 118.363 23.7413 117.339 24.296C116.315 24.8293 115.035 25.096 113.499 25.096H106.651ZM105.467 25.096V1.544H107.195V25.096H105.467ZM106.651 13.608V12.392H112.923C114.544 12.392 115.739 11.9653 116.507 11.112C117.275 10.2373 117.659 9.11733 117.659 7.752C117.659 6.408 117.275 5.29867 116.507 4.424C115.739 3.54933 114.544 3.112 112.923 3.112H106.651V1.544H112.603C114.907 1.544 116.613 2.09867 117.722 3.208C118.853 4.296 119.419 5.74667 119.419 7.56V7.88C119.419 9.13867 119.141 10.1947 118.587 11.048C118.032 11.9013 117.243 12.5413 116.219 12.968C115.216 13.3947 114.011 13.608 112.603 13.608H106.651ZM125.952 25V8.2H127.296V15.304H127.04C127.04 12.872 127.584 11.0587 128.672 9.864C129.76 8.66933 131.52 8.072 133.952 8.072H134.528V9.608H133.632C131.648 9.608 130.155 10.12 129.152 11.144C128.15 12.1467 127.648 13.6293 127.648 15.592V25H125.952ZM139.317 25V8.2H141.045V25H139.317ZM136.533 9.672V8.2H141.045V9.672H136.533ZM139.477 4.68C139.029 4.68 138.688 4.56267 138.453 4.328C138.218 4.072 138.101 3.752 138.101 3.368C138.101 2.96266 138.218 2.632 138.453 2.376C138.688 2.12 139.04 1.992 139.509 1.992C139.957 1.992 140.298 2.12 140.533 2.376C140.768 2.632 140.885 2.96266 140.885 3.368C140.885 3.752 140.768 4.072 140.533 4.328C140.32 4.56267 139.968 4.68 139.477 4.68ZM153.149 25.48C151.122 25.48 149.586 24.8293 148.541 23.528C147.496 22.2267 146.973 20.4667 146.973 18.248V8.2H148.701V18.632C148.701 20.1893 149.106 21.4587 149.917 22.44C150.749 23.4 151.944 23.88 153.501 23.88C155.08 23.88 156.328 23.3787 157.245 22.376C158.184 21.3733 158.653 20.0613 158.653 18.44V8.2H160.349V25H159.005V18.216H159.389C159.389 19.6453 159.154 20.9147 158.685 22.024C158.237 23.112 157.565 23.9653 156.669 24.584C155.773 25.1813 154.632 25.48 153.245 25.48H153.149ZM171.789 25.48C169.698 25.48 168.087 25 166.957 24.04C165.847 23.08 165.282 21.8533 165.261 20.36H166.925C166.925 21.32 167.298 22.1627 168.045 22.888C168.813 23.592 170.061 23.944 171.789 23.944C173.474 23.944 174.711 23.592 175.501 22.888C176.29 22.1627 176.685 21.3093 176.685 20.328C176.685 19.368 176.322 18.632 175.597 18.12C174.893 17.608 173.933 17.288 172.717 17.16L170.733 16.936C169.261 16.7653 168.087 16.3067 167.213 15.56C166.359 14.8133 165.933 13.8 165.933 12.52C165.933 11.6027 166.167 10.7813 166.637 10.056C167.106 9.33067 167.778 8.75467 168.653 8.328C169.549 7.90133 170.594 7.688 171.789 7.688C173.538 7.688 174.946 8.11467 176.013 8.968C177.101 9.82133 177.655 10.984 177.677 12.456H176.013C176.034 11.5387 175.671 10.7707 174.925 10.152C174.199 9.53333 173.154 9.224 171.789 9.224C170.359 9.224 169.293 9.55467 168.589 10.216C167.906 10.8773 167.565 11.656 167.565 12.552C167.565 13.2987 167.831 13.9387 168.365 14.472C168.919 15.0053 169.751 15.336 170.861 15.464L172.845 15.688C174.423 15.8373 175.725 16.296 176.749 17.064C177.794 17.832 178.317 18.9307 178.317 20.36C178.317 21.32 178.05 22.184 177.517 22.952C177.005 23.72 176.269 24.3387 175.309 24.808C174.349 25.256 173.175 25.48 171.789 25.48ZM183.265 25V1.64H184.961V14.12L184.353 15.208C184.353 13.736 184.577 12.4453 185.025 11.336C185.494 10.2053 186.198 9.33067 187.137 8.712C188.075 8.072 189.259 7.752 190.689 7.752H190.753C192.843 7.752 194.422 8.41333 195.489 9.736C196.555 11.0373 197.089 12.8187 197.089 15.08V25H195.361V14.696C195.361 13.0747 194.923 11.7733 194.049 10.792C193.174 9.81067 191.937 9.32 190.337 9.32C188.694 9.32 187.382 9.84267 186.401 10.888C185.441 11.912 184.961 13.256 184.961 14.92V25H183.265ZM201.189 31.528V29.96H203.109C203.856 29.96 204.507 29.864 205.061 29.672C205.616 29.5013 206.096 29.1813 206.501 28.712C206.928 28.2427 207.28 27.5707 207.557 26.696L213.541 8.2H215.237L208.997 27.24C208.656 28.2853 208.197 29.1173 207.621 29.736C207.067 30.376 206.395 30.8347 205.605 31.112C204.837 31.3893 203.963 31.528 202.981 31.528H201.189ZM207.013 24.584V23.08H209.381V24.584H207.013ZM206.693 24.584L200.581 8.2H202.309L208.357 24.584H206.693ZM219.515 25V8.2H220.859V15.08H220.475C220.475 13.608 220.709 12.328 221.179 11.24C221.669 10.1307 222.384 9.27733 223.323 8.68C224.283 8.06133 225.467 7.752 226.875 7.752H226.971C229.083 7.752 230.672 8.41333 231.739 9.736C232.805 11.0373 233.339 12.8187 233.339 15.08V25H231.611V14.696C231.611 13.096 231.173 11.8053 230.299 10.824C229.445 9.82133 228.208 9.32 226.587 9.32C224.944 9.32 223.632 9.832 222.651 10.856C221.691 11.8587 221.211 13.192 221.211 14.856V25H219.515Z" fill="white"/>
<path d="M238.78 25V21.832H241.788V25H238.78Z" fill="#F13024"/>
</svg>
