<svg width="734" height="94" viewBox="0 0 734 94" fill="none" xmlns="http://www.w3.org/2000/svg">
<path d="M30.256 75.824C23.92 75.824 18.576 74.832 14.224 72.848C9.872 70.8 6.576 68.048 4.336 64.592C2.096 61.072 0.976 57.04 0.976 52.496H16.24C16.24 54.288 16.72 55.952 17.68 57.488C18.704 59.024 20.24 60.272 22.288 61.232C24.336 62.128 26.992 62.576 30.256 62.576C33.2 62.576 35.664 62.192 37.648 61.424C39.632 60.656 41.136 59.6 42.16 58.256C43.184 56.848 43.696 55.248 43.696 53.456C43.696 51.216 42.736 49.456 40.816 48.176C38.896 46.832 35.792 45.968 31.504 45.584L26.224 45.104C19.248 44.528 13.68 42.352 9.52 38.576C5.36 34.8 3.28 29.808 3.28 23.6C3.28 19.12 4.336 15.248 6.448 11.984C8.624 8.72 11.632 6.224 15.472 4.496C19.312 2.704 23.856 1.808 29.104 1.808C34.608 1.808 39.312 2.768 43.216 4.68799C47.184 6.544 50.224 9.2 52.336 12.656C54.448 16.048 55.504 20.048 55.504 24.656H40.144C40.144 22.928 39.728 21.36 38.896 19.952C38.064 18.48 36.816 17.296 35.152 16.4C33.552 15.504 31.536 15.056 29.104 15.056C26.8 15.056 24.848 15.44 23.248 16.208C21.712 16.976 20.56 18.032 19.792 19.376C19.024 20.656 18.64 22.064 18.64 23.6C18.64 25.584 19.344 27.312 20.752 28.784C22.16 30.256 24.464 31.12 27.664 31.376L33.04 31.856C38.16 32.304 42.672 33.424 46.576 35.216C50.48 36.944 53.52 39.344 55.696 42.416C57.936 45.424 59.056 49.104 59.056 53.456C59.056 57.936 57.872 61.872 55.504 65.264C53.2 68.592 49.904 71.184 45.616 73.04C41.328 74.896 36.208 75.824 30.256 75.824ZM92.8853 75.824C88.4053 75.824 84.4373 75.056 80.9813 73.52C77.5893 71.984 74.7413 69.936 72.4373 67.376C70.1973 64.752 68.4693 61.84 67.2533 58.64C66.1013 55.376 65.5253 52.048 65.5253 48.656V46.736C65.5253 43.216 66.1013 39.856 67.2533 36.656C68.4693 33.392 70.1973 30.48 72.4373 27.92C74.6773 25.36 77.4613 23.344 80.7893 21.872C84.1813 20.336 88.0213 19.568 92.3093 19.568C97.9413 19.568 102.677 20.848 106.517 23.408C110.421 25.904 113.397 29.2 115.445 33.296C117.493 37.328 118.517 41.744 118.517 46.544V51.728H71.9573V42.992H109.205L104.213 47.024C104.213 43.888 103.765 41.2 102.869 38.96C101.973 36.72 100.629 35.024 98.8373 33.872C97.1093 32.656 94.9333 32.048 92.3093 32.048C89.6213 32.048 87.3493 32.656 85.4933 33.872C83.6373 35.088 82.2293 36.88 81.2693 39.248C80.3093 41.552 79.8293 44.4 79.8293 47.792C79.8293 50.928 80.2773 53.68 81.1733 56.048C82.0693 58.352 83.4773 60.144 85.3973 61.424C87.3173 62.704 89.8133 63.344 92.8853 63.344C95.7013 63.344 98.0053 62.8 99.7973 61.712C101.589 60.624 102.805 59.28 103.445 57.68H117.557C116.789 61.2 115.285 64.336 113.045 67.088C110.805 69.84 107.989 71.984 104.597 73.52C101.205 75.056 97.3013 75.824 92.8853 75.824ZM128.446 74V21.392H140.638V43.952H140.35C140.35 36.528 141.918 30.8 145.054 26.768C148.254 22.736 152.862 20.72 158.878 20.72H160.894V33.968H157.054C152.83 33.968 149.566 35.12 147.262 37.424C144.958 39.664 143.806 42.928 143.806 47.216V74H128.446ZM168.602 74V3.92H183.962V44.336H181.658C181.658 39.024 182.33 34.544 183.674 30.896C185.018 27.248 187.002 24.496 189.626 22.64C192.25 20.72 195.546 19.76 199.514 19.76H200.186C206.01 19.76 210.458 21.84 213.53 26C216.602 30.096 218.138 36.112 218.138 44.048V74H202.778V43.088C202.778 40.208 201.914 37.904 200.186 36.176C198.522 34.384 196.314 33.488 193.562 33.488C190.682 33.488 188.346 34.416 186.554 36.272C184.826 38.128 183.962 40.592 183.962 43.664V74H168.602ZM233.473 74V21.392H248.833V74H233.473ZM226.465 32.72V21.392H248.833V32.72H226.465ZM239.425 16.208C236.545 16.208 234.401 15.472 232.993 14C231.649 12.464 230.977 10.544 230.977 8.23999C230.977 5.87199 231.649 3.95199 232.993 2.47999C234.401 0.943995 236.545 0.175995 239.425 0.175995C242.305 0.175995 244.417 0.943995 245.761 2.47999C247.169 3.95199 247.873 5.87199 247.873 8.23999C247.873 10.544 247.169 12.464 245.761 14C244.417 15.472 242.305 16.208 239.425 16.208ZM265.285 74V21.392H280.645V74H265.285ZM258.277 32.72V21.392H280.645V32.72H258.277ZM271.237 16.208C268.357 16.208 266.213 15.472 264.805 14C263.461 12.464 262.789 10.544 262.789 8.23999C262.789 5.87199 263.461 3.95199 264.805 2.47999C266.213 0.943995 268.357 0.175995 271.237 0.175995C274.117 0.175995 276.229 0.943995 277.573 2.47999C278.981 3.95199 279.685 5.87199 279.685 8.23999C279.685 10.544 278.981 12.464 277.573 14C276.229 15.472 274.117 16.208 271.237 16.208ZM324.452 74.288V69.584H345.86C350.404 69.584 353.956 68.24 356.516 65.552C359.076 62.864 360.356 59.408 360.356 55.184C360.356 50.896 359.108 47.44 356.612 44.816C354.116 42.128 350.532 40.784 345.86 40.784H324.452V37.136H344.996C349.092 37.136 352.676 37.808 355.748 39.152C358.82 40.432 361.22 42.384 362.948 45.008C364.74 47.632 365.635 50.864 365.635 54.704V55.664C365.635 59.248 364.868 62.448 363.332 65.264C361.86 68.016 359.588 70.224 356.516 71.888C353.444 73.488 349.604 74.288 344.996 74.288H324.452ZM320.9 74.288V3.632H326.084V74.288H320.9ZM324.452 39.824V36.176H343.268C348.132 36.176 351.716 34.896 354.02 32.336C356.324 29.712 357.476 26.352 357.476 22.256C357.476 18.224 356.324 14.896 354.02 12.272C351.716 9.648 348.132 8.336 343.268 8.336H324.452V3.632H342.308C349.22 3.632 354.34 5.296 357.667 8.62399C361.06 11.888 362.756 16.24 362.756 21.68V22.64C362.756 26.416 361.924 29.584 360.26 32.144C358.596 34.704 356.228 36.624 353.156 37.904C350.148 39.184 346.532 39.824 342.308 39.824H324.452ZM382.857 74V23.6H386.889V44.912H386.121C386.121 37.616 387.753 32.176 391.017 28.592C394.281 25.008 399.561 23.216 406.857 23.216H408.585V27.824H405.897C399.945 27.824 395.465 29.36 392.457 32.432C389.449 35.44 387.945 39.888 387.945 45.776V74H382.857ZM423.451 74V23.6H428.635V74H423.451ZM415.099 28.016V23.6H428.635V28.016H415.099ZM423.931 13.04C422.587 13.04 421.563 12.688 420.859 11.984C420.155 11.216 419.803 10.256 419.803 9.10399C419.803 7.88799 420.155 6.896 420.859 6.128C421.563 5.36 422.619 4.976 424.027 4.976C425.371 4.976 426.395 5.36 427.099 6.128C427.803 6.896 428.155 7.88799 428.155 9.10399C428.155 10.256 427.803 11.216 427.099 11.984C426.459 12.688 425.403 13.04 423.931 13.04ZM465.447 75.44C459.367 75.44 454.759 73.488 451.623 69.584C448.487 65.68 446.919 60.4 446.919 53.744V23.6H452.103V54.896C452.103 59.568 453.319 63.376 455.751 66.32C458.247 69.2 461.831 70.64 466.503 70.64C471.239 70.64 474.983 69.136 477.735 66.128C480.551 63.12 481.959 59.184 481.959 54.32V23.6H487.047V74H483.015V53.648H484.167C484.167 57.936 483.463 61.744 482.055 65.072C480.711 68.336 478.695 70.896 476.007 72.752C473.319 74.544 469.895 75.44 465.735 75.44H465.447ZM521.866 75.44C515.594 75.44 510.762 74 507.37 71.12C504.042 68.24 502.346 64.56 502.282 60.08H507.274C507.274 62.96 508.394 65.488 510.634 67.664C512.938 69.776 516.682 70.832 521.866 70.832C526.922 70.832 530.634 69.776 533.002 67.664C535.37 65.488 536.554 62.928 536.554 59.984C536.554 57.104 535.466 54.896 533.29 53.36C531.178 51.824 528.298 50.864 524.65 50.48L518.698 49.808C514.282 49.296 510.762 47.92 508.138 45.68C505.578 43.44 504.298 40.4 504.298 36.56C504.298 33.808 505.002 31.344 506.41 29.168C507.818 26.992 509.834 25.264 512.458 23.984C515.146 22.704 518.282 22.064 521.866 22.064C527.114 22.064 531.338 23.344 534.538 25.904C537.802 28.464 539.466 31.952 539.53 36.368H534.538C534.602 33.616 533.514 31.312 531.274 29.456C529.098 27.6 525.962 26.672 521.866 26.672C517.578 26.672 514.378 27.664 512.266 29.648C510.218 31.632 509.194 33.968 509.194 36.656C509.194 38.896 509.994 40.816 511.594 42.416C513.258 44.016 515.754 45.008 519.082 45.392L525.034 46.064C529.77 46.512 533.674 47.888 536.746 50.192C539.882 52.496 541.45 55.792 541.45 60.08C541.45 62.96 540.65 65.552 539.05 67.856C537.514 70.16 535.306 72.016 532.426 73.424C529.546 74.768 526.026 75.44 521.866 75.44ZM556.794 74V3.92H561.882V41.36L560.058 44.624C560.058 40.208 560.73 36.336 562.074 33.008C563.482 29.616 565.594 26.992 568.41 25.136C571.226 23.216 574.778 22.256 579.066 22.256H579.258C585.53 22.256 590.266 24.24 593.466 28.208C596.666 32.112 598.266 37.456 598.266 44.24V74H593.082V43.088C593.082 38.224 591.77 34.32 589.146 31.376C586.522 28.432 582.81 26.96 578.01 26.96C573.082 26.96 569.146 28.528 566.202 31.664C563.322 34.736 561.882 38.768 561.882 43.76V74H556.794ZM611.068 93.584V88.88H616.828C619.068 88.88 621.02 88.592 622.684 88.016C624.348 87.504 625.788 86.544 627.004 85.136C628.284 83.728 629.34 81.712 630.172 79.088L648.124 23.6H653.212L634.492 80.72C633.468 83.856 632.092 86.352 630.364 88.208C628.7 90.128 626.684 91.504 624.316 92.336C622.012 93.168 619.388 93.584 616.444 93.584H611.068ZM628.54 72.752V68.24H635.644V72.752H628.54ZM627.58 72.752L609.244 23.6H614.428L632.572 72.752H627.58ZM666.544 74V23.6H670.576V44.24H669.424C669.424 39.824 670.128 35.984 671.536 32.72C673.008 29.392 675.152 26.832 677.968 25.04C680.848 23.184 684.4 22.256 688.624 22.256H688.912C695.248 22.256 700.016 24.24 703.216 28.208C706.416 32.112 708.016 37.456 708.016 44.24V74H702.832V43.088C702.832 38.288 701.52 34.416 698.896 31.472C696.336 28.464 692.624 26.96 687.76 26.96C682.832 26.96 678.896 28.496 675.952 31.568C673.072 34.576 671.632 38.576 671.632 43.568V74H666.544Z" fill="white"/>
<path d="M724.841 74V64.496H733.865V74H724.841Z" fill="#F13024"/>
</svg>
